<svg width="24" height="20" viewBox="0 0 24 20" fill="none" xmlns="http://www.w3.org/2000/svg">
<path d="M11.8 19.6C11.6 19.6 11.3 19.5 11.1 19.4C8.49998 18 -0.200026 13.1 -2.55967e-05 6.8C-2.55967e-05 6.7 -2.55967e-05 6.6 -2.55967e-05 6.6V6.4C-2.55967e-05 2.9 2.89997 0 6.39997 0H6.49997H6.69997C8.69997 0 10.6 0.9 11.8 2.5C13 0.9 14.9 0 16.9 0H17.1H17.2C20.7 0 23.6 2.9 23.6 6.4V6.6C23.6 6.7 23.6 6.8 23.6 6.8C23.8 13.2 14.4 18.4 12.5 19.4C12.3 19.5 12 19.6 11.8 19.6ZM6.49997 2C3.99997 2 1.99997 4 1.99997 6.4V6.5C1.99997 6.6 1.99997 6.8 1.99997 6.9C1.79997 11.9 9.99997 16.5 11.8 17.5C13.6 16.5 21.8 11.9 21.6 6.9C21.6 6.8 21.6 6.7 21.6 6.5V6.4C21.6 4 19.6 2 17.2 2H16.9C15.1 2 13.4 3.1 12.7 4.8L11.8 7L10.9 4.8C10.2 3.1 8.49997 2 6.69997 2H6.49997Z" fill="black"/>
</svg>
