<svg width="21" height="22" viewBox="0 0 21 22" fill="none" xmlns="http://www.w3.org/2000/svg">
<path d="M10.5 12.6C7.05601 12.6 4.20001 9.744 4.20001 6.3C4.20001 2.856 7.05601 0 10.5 0C13.944 0 16.8 2.856 16.8 6.3C16.8 9.744 13.944 12.6 10.5 12.6ZM10.5 1.68C7.98001 1.68 5.88001 3.78 5.88001 6.3C5.88001 8.82 7.98001 10.92 10.5 10.92C13.02 10.92 15.12 8.82 15.12 6.3C15.12 3.78 13.02 1.68 10.5 1.68Z" fill="black"/>
<path d="M21 21.4199H19.32C19.32 16.5479 15.372 12.5999 10.5 12.5999C5.628 12.5999 1.68 16.5479 1.68 21.4199H0C0 15.6239 4.704 10.9199 10.5 10.9199C16.296 10.9199 21 15.6239 21 21.4199Z" fill="black"/>
</svg>
