<svg id="Слой_2" data-name="Слой 2" xmlns="http://www.w3.org/2000/svg" viewBox="0 0 841.89 595.28"><defs><style>.cls-1{fill:none;stroke:#000;stroke-linecap:round;stroke-width:7px;}.cls-2{opacity:0.65;}</style></defs><path d="M229.37,250.53v8.35q-10.17-4.11-18.1-4.1-12.53,0-12.52,8.79a7.44,7.44,0,0,0,2.34,5.73q2.34,2.18,8.68,4.47l5.91,2.15,5.62,2q13.09,4.79,13.09,16.21A16.7,16.7,0,0,1,227.71,308q-6.69,5.21-17.9,5.2-7.78,0-20.12-3.46v-9.52Q202,306,210.1,306q6.84,0,10.92-2.81a8.72,8.72,0,0,0,4.08-7.54,7.19,7.19,0,0,0-2.41-5.72q-2.41-2.1-10-5l-6.19-2.34q-9.24-3.57-12.83-7.32t-3.58-10q0-8.46,5.51-13.09t15.5-4.64A65.18,65.18,0,0,1,229.37,250.53Z"/><path d="M264.17,311.71V256.29H241.05v-7.23h55.53v7.23H273.41v55.42Z"/><path d="M304.93,249.06h9.24v38q0,10,3,14.43T327,306q7.13,0,10.27-4.47t3.14-14.67v-37.8h8.07v36.38q0,11.78-2.67,16.9-5.68,10.89-18.72,10.88-11.3,0-16.72-6.44T304.93,287Z"/><path d="M366.32,311.71V249.06H385.9q10.47,0,14.93,2,9.1,4.09,9.11,15.82,0,9.86-7.35,15.48t-20.27,5.61h-6.76v23.78Zm9.24-31h5.77q18.75,0,18.76-13.68,0-5.76-3.54-8.25t-11.8-2.49h-9.19Z"/><path d="M453.86,311.71l24.71-62.65h9.61l24.71,62.65H502.71L496.79,296H468.17l-6,15.67ZM471,288.81h22.88l-11.5-29.93Z"/><path d="M522.51,311.71V249.06H540q10.94,0,15.19,1.81,9.07,3.76,9.08,13.28a18.16,18.16,0,0,1-3.16,10.92q-3.15,4.37-10.54,8.12l21.63,28.52H560.6l-19.78-26.07h-8.69v26.07Zm9.62-33.3h5.08c5.17,0,9.28-1.14,12.3-3.43a11,11,0,0,0,4.54-9.25c0-3.62-1.14-6.09-3.41-7.43s-6.48-2-12.6-2h-5.91Z"/><path d="M599.07,311.71V256.29H575v-7.23h57.81v7.23H608.69v55.42Z"/><path class="cls-1" d="M431.55,301c-6.09,48.57-44.73,95.13-101.92,115.9s-116.69,9.84-152.53-23.51"/><path class="cls-1" d="M435,257.19c5.73-49.11,45.36-97.62,104.63-121s121.35-15,159.07,17"/><circle cx="433.04" cy="277.89" r="3.7"/><g class="cls-2"><path d="M463.23,349a8.63,8.63,0,0,1-6.41-2.63,10.18,10.18,0,0,1,0-13.61,8.7,8.7,0,0,1,6.41-2.62A8.27,8.27,0,0,1,470,333.5l-1.73,1.12a6.13,6.13,0,0,0-2.2-1.82,6.51,6.51,0,0,0-7.7,1.4,8.25,8.25,0,0,0,0,10.63,6.26,6.26,0,0,0,4.82,2.1,6.33,6.33,0,0,0,2.7-.58,6.72,6.72,0,0,0,2-1.38v-3.71h-6v-2h8.2v6.58A8.7,8.7,0,0,1,463.23,349Z"/><path d="M490.34,348.6h-2.5l-1.55-4h-8.73l-1.55,4h-2.5l7.05-18.21h2.7Zm-4.71-6.06-3.71-9.8-3.73,9.8Z"/><path d="M504.61,348.6H494.28V330.39h2.18v16.19h8.15Z"/><path d="M519.68,348.6H509.34V330.39h2.18v16.19h8.16Z"/><path d="M535.89,348.6H524.41V330.39h11.48v2h-9.3v5.87h9.12v2h-9.12v6.28h9.3Z"/><path d="M553.75,348.6h-2.58l-4.47-7.23h-3.5v7.23H541V330.39h7.05a5.19,5.19,0,0,1,5.49,5.49,5.25,5.25,0,0,1-1.31,3.74,4.9,4.9,0,0,1-3.24,1.56Zm-6-9.23a3.55,3.55,0,0,0,2.53-6,3.45,3.45,0,0,0-2.53-1h-4.6v7Z"/><path d="M565.94,348.6h-2.18v-7.7l-6.91-10.51h2.55l5.44,8.47,5.44-8.47h2.55l-6.89,10.51Z"/></g></svg>